<svg width="60" height="60" viewBox="0 0 60 60" fill="none" xmlns="http://www.w3.org/2000/svg">
<g clip-path="url(#clip0_31_1165)">
<path d="M17.5 42.5L42.5 17.5M19.0619 19.0623H20.9369M19.0619 20.9373H20.9369M39.0619 39.0623H40.9369M39.0619 40.9373H40.9369M57.5 30C57.5 45.1878 45.1878 57.5 30 57.5C14.8122 57.5 2.5 45.1878 2.5 30C2.5 14.8122 14.8122 2.5 30 2.5C45.1878 2.5 57.5 14.8122 57.5 30ZM22.5 20C22.5 21.3807 21.3807 22.5 20 22.5C18.6193 22.5 17.5 21.3807 17.5 20C17.5 18.6193 18.6193 17.5 20 17.5C21.3807 17.5 22.5 18.6193 22.5 20ZM42.5 40C42.5 41.3807 41.3807 42.5 40 42.5C38.6193 42.5 37.5 41.3807 37.5 40C37.5 38.6193 38.6193 37.5 40 37.5C41.3807 37.5 42.5 38.6193 42.5 40Z" stroke="#005FD8" stroke-width="3.5" stroke-linecap="round"/>
</g>
<defs>
<clipPath id="clip0_31_1165">
<rect width="60" height="60" fill="white"/>
</clipPath>
</defs>
</svg>
