<svg width="60" height="60" viewBox="0 0 60 60" fill="none" xmlns="http://www.w3.org/2000/svg">
<g clip-path="url(#clip0_27_1114)">
<path d="M46.342 5.68385L46.3424 5.68398C48.7628 6.48799 50.8683 8.03432 52.3597 10.1033C53.8511 12.1722 54.6526 14.6585 54.6502 17.209V17.2093V30.0018C54.6502 39.3052 48.991 46.5543 43.1495 51.5556C37.3133 56.5524 31.3519 59.2555 30.8739 59.4667L30.8731 59.467C30.5983 59.5891 30.301 59.6521 30.0002 59.6521C29.6995 59.6521 29.4022 59.5891 29.1274 59.467L29.1266 59.4667C28.6486 59.2555 22.6872 56.5524 16.851 51.5556C11.0095 46.5543 5.35025 39.3052 5.35025 30.0018L5.35025 17.2093L5.35025 17.209C5.34791 14.6585 6.14938 12.1722 7.64078 10.1033C9.13218 8.03432 11.2377 6.48799 13.6581 5.68398L13.6585 5.68385L29.3208 0.461388C29.3209 0.461376 29.3209 0.461364 29.321 0.461351C29.7619 0.314511 30.2386 0.314511 30.6795 0.461351C30.6796 0.461364 30.6796 0.461376 30.6796 0.461388L46.342 5.68385ZM31.0152 59.7868C32.0002 59.3518 55.0002 48.9093 55.0002 30.0018V17.2093L31.0152 59.7868ZM29.842 55.0365L30.0006 55.1169L30.1591 55.0362C32.2736 53.9594 37.3067 51.1705 41.816 46.9296C46.3206 42.693 50.3502 36.9613 50.3502 30.0018V17.2093C50.3501 15.5615 49.8314 13.9556 48.8677 12.619C47.904 11.2824 46.5442 10.283 44.9808 9.76226L30.1109 4.80479L30.0002 4.76788L29.8896 4.80479L15.0196 9.76226C13.4563 10.283 12.0965 11.2824 11.1328 12.619C10.1691 13.9556 9.6504 15.5615 9.65025 17.2093V17.2093V30.0018C9.65025 36.9786 13.6785 42.7122 18.1827 46.9456C22.6915 51.1832 27.7248 53.9634 29.842 55.0365Z" fill="#005FD8" stroke="white" stroke-width="0.7"/>
<path d="M27.6948 38.366H27.7773L27.6976 38.016M27.6948 38.366L27.7002 38.016C27.6993 38.016 27.6985 38.016 27.6976 38.016M27.6948 38.366C27.0621 38.3563 26.4378 38.2183 25.8599 37.9605C25.2819 37.7027 24.7623 37.3303 24.3323 36.866L27.6948 38.366ZM27.6976 38.016H27.7773H27.7785C28.3523 38.0179 28.9207 37.9058 29.4508 37.6862C29.981 37.4666 30.4622 37.1439 30.8665 36.7368L30.8674 36.736L41.5474 26.0559L41.5476 26.0557C41.7484 25.8554 41.9077 25.6175 42.0164 25.3556L42.3397 25.4899L42.0165 25.3556C42.1252 25.0938 42.1814 24.813 42.1817 24.5295C42.182 24.2459 42.1264 23.965 42.0182 23.7029C41.91 23.4408 41.7512 23.2026 41.5508 23.0019C41.3505 22.8012 41.1127 22.6419 40.8508 22.5331C40.5889 22.4243 40.3082 22.3681 40.0246 22.3678C39.7411 22.3675 39.4602 22.4231 39.1981 22.5313C38.9362 22.6395 38.6981 22.7982 38.4974 22.9983C38.4973 22.9984 38.4972 22.9986 38.4971 22.9987L28.0277 33.4981L27.775 33.7515L27.5272 33.4932L21.9172 27.6432L21.9115 27.6372L21.9116 27.6371C21.718 27.4254 21.4839 27.2546 21.2233 27.1348C20.9626 27.0149 20.6806 26.9485 20.3939 26.9393C20.1071 26.9301 19.8215 26.9784 19.5537 27.0813C19.2859 27.1843 19.0414 27.3397 18.8347 27.5386C18.6279 27.7375 18.463 27.9757 18.3497 28.2393C18.2365 28.5029 18.1771 28.7865 18.1751 29.0734C18.1731 29.3602 18.2286 29.6446 18.3382 29.9097C18.4479 30.1749 18.6094 30.4153 18.8134 30.6171L18.8198 30.6234L18.8197 30.6234L24.5847 36.6235L24.5892 36.6281L24.5892 36.6282C24.987 37.0578 25.4678 37.4023 26.0025 37.6409C26.5364 37.8791 27.113 38.0066 27.6976 38.016Z" fill="#005FD8" stroke="white" stroke-width="0.7"/>
</g>
<defs>
<clipPath id="clip0_27_1114">
<rect width="60" height="60" fill="white"/>
</clipPath>
</defs>
</svg>
