<svg width="60" height="60" viewBox="0 0 60 60" fill="none" xmlns="http://www.w3.org/2000/svg">
<g clip-path="url(#clip0_27_1140)">
<path d="M10.0941 51.378L10.893 49.821H10.893L10.0941 51.378ZM7.61763 48.8842L9.17913 48.0941H9.17913L7.61763 48.8842ZM49.2393 51.378L48.4404 49.821L49.2393 51.378ZM51.7157 48.8842L50.1542 48.0941L51.7157 48.8842ZM49.2393 12.6766L48.4404 14.2336V14.2336L49.2393 12.6766ZM51.7157 15.1705L50.1542 15.9605L51.7157 15.1705ZM10.0941 12.6766L9.29515 11.1196L10.0941 12.6766ZM7.61763 15.1705L6.05613 14.3804H6.05613L7.61763 15.1705ZM39.7137 37.4228L40.5126 35.8658L39.7137 37.4228ZM38.4755 36.1759L40.037 35.3858L38.4755 36.1759ZM57.6912 36.1759L56.1297 35.3858L57.6912 36.1759ZM56.453 37.4228L55.6541 35.8658L56.453 37.4228ZM56.453 26.6318L55.6541 28.1889L56.453 26.6318ZM57.6912 27.8788L56.1297 28.6688L57.6912 27.8788ZM39.7137 26.6318L40.5126 28.1889L39.7137 26.6318ZM38.4755 27.8788L40.037 28.6688L38.4755 27.8788ZM12.0128 10.4314C11.1163 10.7925 10.6823 11.812 11.0434 12.7085C11.4045 13.605 12.424 14.0391 13.3205 13.6779L12.0128 10.4314ZM37.1144 2.20689L36.4605 0.58363L36.4605 0.58363L37.1144 2.20689ZM39.25 12.0547C39.25 13.0212 40.0335 13.8047 41 13.8047C41.9665 13.8047 42.75 13.0212 42.75 12.0547H39.25ZM16.0667 13.8047H43.2667V10.3047H16.0667V13.8047ZM43.2667 50.25H16.0667V53.75H43.2667V50.25ZM8.75 42.8696V21.185H5.25V42.8696H8.75ZM50.5833 21.185V27.0342H54.0833V21.185H50.5833ZM50.5833 38.2688V42.8696H54.0833V38.2688H50.5833ZM16.0667 50.25C14.4508 50.25 13.3448 50.2486 12.4883 50.1781C11.6526 50.1094 11.2101 49.9838 10.893 49.821L9.29515 52.935C10.1901 53.3943 11.1472 53.5796 12.2013 53.6664C13.2346 53.7514 14.5089 53.75 16.0667 53.75V50.25ZM5.25 42.8696C5.25 44.4389 5.24866 45.7204 5.33294 46.7592C5.41884 47.818 5.60224 48.7772 6.05613 49.6743L9.17913 48.0941C9.01539 47.7705 8.88997 47.3204 8.82147 46.4761C8.75134 45.6117 8.75 44.4963 8.75 42.8696H5.25ZM10.893 49.821C10.157 49.4434 9.55631 48.8396 9.17913 48.0941L6.05613 49.6743C6.76552 51.0763 7.89864 52.2185 9.29515 52.935L10.893 49.821ZM43.2667 53.75C44.8244 53.75 46.0987 53.7514 47.132 53.6664C48.1861 53.5796 49.1432 53.3943 50.0382 52.935L48.4404 49.821C48.1232 49.9838 47.6808 50.1094 46.845 50.1781C45.9885 50.2486 44.8826 50.25 43.2667 50.25V53.75ZM50.5833 42.8696C50.5833 44.4963 50.582 45.6117 50.5119 46.4761C50.4434 47.3204 50.3179 47.7705 50.1542 48.0941L53.2772 49.6743C53.7311 48.7772 53.9145 47.818 54.0004 46.7592C54.0847 45.7204 54.0833 44.4389 54.0833 42.8696H50.5833ZM50.0382 52.935C51.4347 52.2185 52.5678 51.0763 53.2772 49.6743L50.1542 48.0941C49.777 48.8396 49.1764 49.4434 48.4404 49.821L50.0382 52.935ZM43.2667 13.8047C44.8826 13.8047 45.9885 13.8061 46.845 13.8765C47.6808 13.9453 48.1232 14.0709 48.4404 14.2336L50.0382 11.1196C49.1432 10.6604 48.1861 10.475 47.132 10.3883C46.0987 10.3033 44.8244 10.3047 43.2667 10.3047V13.8047ZM54.0833 21.185C54.0833 19.6158 54.0847 18.3343 54.0004 17.2955C53.9145 16.2367 53.7311 15.2775 53.2772 14.3804L50.1542 15.9605C50.3179 16.2841 50.4434 16.7342 50.5119 17.5786C50.582 18.4429 50.5833 19.5584 50.5833 21.185H54.0833ZM48.4404 14.2336C49.1764 14.6113 49.777 15.2151 50.1542 15.9605L53.2772 14.3804C52.5678 12.9784 51.4347 11.8362 50.0382 11.1196L48.4404 14.2336ZM16.0667 10.3047C14.5089 10.3047 13.2346 10.3033 12.2013 10.3883C11.1472 10.475 10.1901 10.6604 9.29515 11.1196L10.893 14.2336C11.2101 14.0709 11.6526 13.9453 12.4883 13.8765C13.3448 13.8061 14.4508 13.8047 16.0667 13.8047V10.3047ZM8.75 21.185C8.75 19.5584 8.75134 18.4429 8.82147 17.5786C8.88997 16.7342 9.01539 16.2841 9.17913 15.9605L6.05613 14.3804C5.60224 15.2775 5.41884 16.2367 5.33294 17.2955C5.24866 18.3343 5.25 19.6157 5.25 21.185H8.75ZM9.29515 11.1196C7.89864 11.8362 6.76551 12.9784 6.05613 14.3804L9.17913 15.9605C9.55631 15.2151 10.157 14.6113 10.893 14.2336L9.29515 11.1196ZM42.7 28.0709H53.4667V24.5709H42.7V28.0709ZM56.25 30.886V33.1686H59.75V30.886H56.25ZM53.4667 35.9838H42.7V39.4838H53.4667V35.9838ZM39.9167 33.1686V30.886H36.4167V33.1686H39.9167ZM42.7 35.9838C41.8775 35.9838 41.3666 35.9824 40.9826 35.9508C40.6193 35.9209 40.5267 35.8731 40.5126 35.8658L38.9148 38.9798C39.5067 39.2836 40.1139 39.3912 40.6956 39.439C41.2564 39.4852 41.9357 39.4838 42.7 39.4838V35.9838ZM36.4167 33.1686C36.4167 33.9389 36.4153 34.6212 36.461 35.1842C36.5083 35.7672 36.6145 36.3741 36.914 36.966L40.037 35.3858C40.0277 35.3674 39.9794 35.2696 39.9495 34.9011C39.918 34.5125 39.9167 33.9963 39.9167 33.1686H36.4167ZM40.5126 35.8658C40.3097 35.7617 40.1425 35.5944 40.037 35.3858L36.914 36.966C37.3517 37.8311 38.0514 38.5368 38.9148 38.9798L40.5126 35.8658ZM56.25 33.1686C56.25 33.9963 56.2487 34.5125 56.2171 34.9011C56.1872 35.2696 56.139 35.3674 56.1297 35.3858L59.2527 36.966C59.5522 36.3741 59.6584 35.7672 59.7057 35.1842C59.7513 34.6212 59.75 33.9389 59.75 33.1686H56.25ZM53.4667 39.4838C54.231 39.4838 54.9102 39.4852 55.4711 39.439C56.0528 39.3912 56.6599 39.2836 57.2519 38.9798L55.6541 35.8658C55.6399 35.8731 55.5474 35.9209 55.1841 35.9508C54.8 35.9824 54.2892 35.9838 53.4667 35.9838V39.4838ZM56.1297 35.3858C56.0241 35.5944 55.8569 35.7617 55.6541 35.8658L57.2519 38.9798C58.1153 38.5368 58.8149 37.8311 59.2527 36.966L56.1297 35.3858ZM53.4667 28.0709C54.2892 28.0709 54.8 28.0722 55.1841 28.1038C55.5474 28.1337 55.6399 28.1816 55.6541 28.1889L57.2519 25.0748C56.6599 24.7711 56.0528 24.6635 55.4711 24.6156C54.9102 24.5695 54.231 24.5709 53.4667 24.5709V28.0709ZM59.75 30.886C59.75 30.1157 59.7513 29.4335 59.7057 28.8705C59.6584 28.2875 59.5522 27.6806 59.2527 27.0887L56.1297 28.6688C56.139 28.6873 56.1872 28.785 56.2171 29.1536C56.2487 29.5422 56.25 30.0584 56.25 30.886H59.75ZM55.6541 28.1889C55.8569 28.2929 56.0241 28.4602 56.1297 28.6688L59.2527 27.0887C58.8149 26.2235 58.1153 25.5179 57.2519 25.0748L55.6541 28.1889ZM42.7 24.5709C41.9357 24.5709 41.2564 24.5695 40.6956 24.6156C40.1139 24.6635 39.5067 24.7711 38.9148 25.0748L40.5126 28.1889C40.5267 28.1816 40.6193 28.1337 40.9826 28.1038C41.3666 28.0722 41.8775 28.0709 42.7 28.0709V24.5709ZM39.9167 30.886C39.9167 30.0584 39.918 29.5422 39.9495 29.1536C39.9794 28.785 40.0277 28.6873 40.037 28.6688L36.914 27.0887C36.6145 27.6806 36.5083 28.2875 36.461 28.8705C36.4153 29.4335 36.4167 30.1157 36.4167 30.886H39.9167ZM38.9148 25.0748C38.0514 25.5179 37.3517 26.2235 36.914 27.0887L40.037 28.6688C40.1425 28.4602 40.3097 28.2929 40.5126 28.1889L38.9148 25.0748ZM13.3205 13.6779L37.7683 3.83014L36.4605 0.58363L12.0128 10.4314L13.3205 13.6779ZM39.25 4.85605V12.0547H42.75V4.85605H39.25ZM37.7683 3.83014C38.4621 3.55067 39.25 4.05872 39.25 4.85605H42.75C42.75 1.61625 39.489 -0.636251 36.4605 0.58363L37.7683 3.83014Z" fill="#005FD8"/>
</g>
<defs>
<clipPath id="clip0_27_1140">
<rect width="60" height="60" fill="white"/>
</clipPath>
</defs>
</svg>
