<svg width="32" height="32" viewBox="0 0 32 32" fill="none" xmlns="http://www.w3.org/2000/svg">
<g clip-path="url(#clip0_29_1148)">
<path d="M2.61666 16.0001V16C2.61666 13.353 3.40158 10.7655 4.87216 8.56462C6.34274 6.36374 8.43293 4.64837 10.8784 3.63541C13.3239 2.62246 16.0148 2.35743 18.611 2.87382C21.2071 3.39022 23.5917 4.66486 25.4634 6.53655C27.3351 8.40825 28.6098 10.7929 29.1262 13.389C29.6426 15.9852 29.3775 18.6761 28.3646 21.1216C27.3516 23.5671 25.6363 25.6573 23.4354 27.1278C21.2345 28.5984 18.647 29.3833 16 29.3833H15.9999C12.4517 29.3794 9.04984 27.9682 6.54083 25.4592C4.03183 22.9502 2.62055 19.5483 2.61666 16.0001ZM24.8613 2.73806C22.2384 0.985456 19.1546 0.0500053 16 0.05C11.7712 0.0545811 7.71692 1.7365 4.7267 4.72672C1.73648 7.71694 0.0545654 11.7712 0.0499916 16C0.0499916 19.1546 0.985443 22.2384 2.73805 24.8613C4.49066 27.4843 6.98171 29.5287 9.89619 30.7359C12.8107 31.9431 16.0177 32.259 19.1117 31.6435C22.2057 31.0281 25.0477 29.509 27.2783 27.2784C29.509 25.0477 31.0281 22.2057 31.6435 19.1117C32.259 16.0177 31.9431 12.8107 30.7359 9.8962C29.5287 6.98172 27.4843 4.49067 24.8613 2.73806Z" fill="#005FD8" stroke="white" stroke-width="0.1"/>
<path d="M17.307 15.1424L17.2836 15.1277V15.1V9.33333C17.2836 8.99297 17.1484 8.66655 16.9077 8.42588C16.667 8.18521 16.3406 8.05 16.0002 8.05C15.6599 8.05 15.3335 8.18521 15.0928 8.42588C14.8521 8.66655 14.7169 8.99297 14.7169 9.33333L14.7169 15.8387L14.7169 15.8392C14.7146 16.0589 14.7687 16.2755 14.8741 16.4683C14.9795 16.6611 15.1326 16.8236 15.3187 16.9403C15.3188 16.9403 15.3188 16.9403 15.3188 16.9403L20.4387 20.1402C20.4387 20.1402 20.4387 20.1402 20.4387 20.1402C20.7281 20.321 21.0773 20.3794 21.4097 20.3026C21.7421 20.2258 22.0304 20.0202 22.2112 19.7308C22.3919 19.4415 22.4503 19.0922 22.3735 18.7598C22.2968 18.4274 22.0911 18.1391 21.8017 17.9584L21.8017 17.9584L17.307 15.1424Z" fill="#005FD8" stroke="white" stroke-width="0.1"/>
</g>
<defs>
<clipPath id="clip0_29_1148">
<rect width="32" height="32" fill="white" transform="matrix(-1 0 0 1 32 0)"/>
</clipPath>
</defs>
</svg>
