<svg width="30" height="30" viewBox="0 0 30 30" fill="none" xmlns="http://www.w3.org/2000/svg">
<g clip-path="url(#clip0_27_1134)">
<path d="M16.2498 1.25004C16.2498 0.918522 16.3815 0.60058 16.616 0.36616C16.8504 0.131739 17.1683 4.30848e-05 17.4998 4.30848e-05C20.8139 0.00368258 23.9912 1.32181 26.3346 3.66523C28.6781 6.00864 29.9962 9.18596 29.9998 12.5C29.9998 12.8316 29.8681 13.1495 29.6337 13.3839C29.3993 13.6183 29.0813 13.75 28.7498 13.75C28.4183 13.75 28.1004 13.6183 27.8659 13.3839C27.6315 13.1495 27.4998 12.8316 27.4998 12.5C27.4968 9.84879 26.4423 7.30698 24.5676 5.43226C22.6929 3.55755 20.1511 2.50302 17.4998 2.50004C17.1683 2.50004 16.8504 2.36835 16.616 2.13393C16.3815 1.89951 16.2498 1.58156 16.2498 1.25004ZM17.4998 7.50004C18.8259 7.50004 20.0977 8.02683 21.0354 8.96451C21.973 9.90219 22.4998 11.174 22.4998 12.5C22.4998 12.8316 22.6315 13.1495 22.8659 13.3839C23.1004 13.6183 23.4183 13.75 23.7498 13.75C24.0814 13.75 24.3993 13.6183 24.6337 13.3839C24.8681 13.1495 24.9998 12.8316 24.9998 12.5C24.9978 10.5115 24.207 8.60503 22.8009 7.19894C21.3948 5.79284 19.4883 5.00203 17.4998 5.00004C17.1683 5.00004 16.8504 5.13174 16.616 5.36616C16.3815 5.60058 16.2498 5.91852 16.2498 6.25004C16.2498 6.58156 16.3815 6.89951 16.616 7.13393C16.8504 7.36835 17.1683 7.50004 17.4998 7.50004ZM28.8661 20.9238C29.5905 21.6502 29.9972 22.6342 29.9972 23.66C29.9972 24.6859 29.5905 25.6699 28.8661 26.3963L27.7286 27.7075C17.4911 37.5088 -7.42138 12.6025 2.22861 2.33254L3.66611 1.08254C4.39332 0.37839 5.36852 -0.0111456 6.38073 -0.00178836C7.39295 0.00756884 8.36078 0.415066 9.07485 1.13254C9.1136 1.17129 11.4298 4.18004 11.4298 4.18004C12.1171 4.90208 12.4997 5.86121 12.4981 6.85805C12.4965 7.85489 12.1107 8.81276 11.4211 9.53254L9.9736 11.3525C10.7747 13.2989 11.9524 15.0679 13.4392 16.5577C14.926 18.0475 16.6926 19.2288 18.6373 20.0338L20.4686 18.5775C21.1885 17.8884 22.1462 17.5032 23.1427 17.5018C24.1392 17.5004 25.098 17.883 25.8198 18.57C25.8198 18.57 28.8273 20.885 28.8661 20.9238ZM27.1461 22.7413C27.1461 22.7413 24.1548 20.44 24.1161 20.4013C23.8586 20.146 23.5106 20.0027 23.148 20.0027C22.7853 20.0027 22.4373 20.146 22.1798 20.4013C22.1461 20.4363 19.6248 22.445 19.6248 22.445C19.4549 22.5803 19.2527 22.6689 19.0381 22.7022C18.8236 22.7356 18.604 22.7124 18.4011 22.635C15.8817 21.697 13.5933 20.2285 11.6909 18.3289C9.78851 16.4293 8.3166 14.1431 7.37485 11.625C7.29135 11.4194 7.26413 11.1952 7.29598 10.9755C7.32784 10.7558 7.41762 10.5485 7.5561 10.375C7.5561 10.375 9.56485 7.85254 9.5986 7.82004C9.85393 7.56253 9.9972 7.21456 9.9972 6.85192C9.9972 6.48927 9.85393 6.14131 9.5986 5.88379C9.55985 5.84629 7.2586 2.85254 7.2586 2.85254C6.99723 2.61818 6.65611 2.49266 6.30516 2.50173C5.95422 2.51079 5.62003 2.65375 5.3711 2.90129L3.93361 4.15129C-3.11889 12.6313 18.4698 33.0225 25.9011 26L27.0398 24.6875C27.3067 24.4404 27.467 24.0991 27.4868 23.7359C27.5066 23.3727 27.3844 23.0161 27.1461 22.7413Z" fill="#005FD8"/>
</g>
<defs>
<clipPath id="clip0_27_1134">
<rect width="30" height="30" fill="white"/>
</clipPath>
</defs>
</svg>
